<svg xmlns="http://www.w3.org/2000/svg" viewBox="0 0 400 400">
  <defs>
    <linearGradient id="retroSkyGradient" x1="0%" y1="0%" x2="0%" y2="100%">
      <stop offset="0%" stop-color="#0a001a" />
      <stop offset="60%" stop-color="#300050" />
      <stop offset="100%" stop-color="#6a1b9a" />
    </linearGradient>
    
    <radialGradient id="sunGradient" cx="50%" cy="50%" r="50%" fx="50%" fy="50%">
      <stop offset="0%" stop-color="#ff9e80" />
      <stop offset="40%" stop-color="#ff6d00" />
      <stop offset="100%" stop-color="#dd2c00" />
    </radialGradient>
    
    <linearGradient id="planet1Gradient" x1="0%" y1="0%" x2="100%" y2="100%">
      <stop offset="0%" stop-color="#01579b" />
      <stop offset="100%" stop-color="#29b6f6" />
    </linearGradient>
    
    <linearGradient id="planet2Gradient" x1="0%" y1="0%" x2="100%" y2="100%">
      <stop offset="0%" stop-color="#ff9800" />
      <stop offset="100%" stop-color="#ffeb3b" />
    </linearGradient>
    
    <filter id="neonGlow" x="-30%" y="-30%" width="160%" height="160%">
      <feGaussianBlur stdDeviation="4" result="blur" />
      <feComposite in="SourceGraphic" in2="blur" operator="over" />
    </filter>
    
    <filter id="planetGlow" x="-20%" y="-20%" width="140%" height="140%">
      <feGaussianBlur stdDeviation="2" result="blur" />
      <feComposite in="SourceGraphic" in2="blur" operator="over" />
    </filter>
    
    <pattern id="grid" x="0" y="0" width="40" height="40" patternUnits="userSpaceOnUse">
      <path d="M 40 0 L 0 0 0 40" fill="none" stroke="#ff00ff" stroke-width="0.5" opacity="0.3" />
    </pattern>
    
    <linearGradient id="horizonGradient" x1="0%" y1="0%" x2="0%" y2="100%">
      <stop offset="0%" stop-color="#ff00ff" stop-opacity="0" />
      <stop offset="50%" stop-color="#ff00ff" stop-opacity="0.5" />
      <stop offset="100%" stop-color="#00ffff" stop-opacity="0.8" />
    </linearGradient>
  </defs>

  <rect width="400" height="400" fill="url(#retroSkyGradient)" />
  
  <g transform="translate(0, 180)">
    <path d="M 0,0 L 400,0" stroke="url(#horizonGradient)" stroke-width="1.5" />
    <path d="M 0,20 L 400,20" stroke="url(#horizonGradient)" stroke-width="1.2" />
    <path d="M 0,40 L 400,40" stroke="url(#horizonGradient)" stroke-width="1" />
    <path d="M 0,60 L 400,60" stroke="url(#horizonGradient)" stroke-width="0.8" />
    <path d="M 0,80 L 400,80" stroke="url(#horizonGradient)" stroke-width="0.6" />
    <path d="M 0,100 L 400,100" stroke="url(#horizonGradient)" stroke-width="0.4" />
    <path d="M 0,120 L 400,120" stroke="url(#horizonGradient)" stroke-width="0.3" />
    <path d="M 0,140 L 400,140" stroke="url(#horizonGradient)" stroke-width="0.2" />
    <path d="M 0,160 L 400,160" stroke="url(#horizonGradient)" stroke-width="0.1" />
    
    <path d="M 40,0 L 40,160" stroke="url(#horizonGradient)" stroke-width="0.5" />
    <path d="M 80,0 L 80,160" stroke="url(#horizonGradient)" stroke-width="0.5" />
    <path d="M 120,0 L 120,160" stroke="url(#horizonGradient)" stroke-width="0.5" />
    <path d="M 160,0 L 160,160" stroke="url(#horizonGradient)" stroke-width="0.5" />
    <path d="M 200,0 L 200,160" stroke="url(#horizonGradient)" stroke-width="0.5" />
    <path d="M 240,0 L 240,160" stroke="url(#horizonGradient)" stroke-width="0.5" />
    <path d="M 280,0 L 280,160" stroke="url(#horizonGradient)" stroke-width="0.5" />
    <path d="M 320,0 L 320,160" stroke="url(#horizonGradient)" stroke-width="0.5" />
    <path d="M 360,0 L 360,160" stroke="url(#horizonGradient)" stroke-width="0.5" />
  </g>
  
  <circle cx="200" cy="100" r="45" fill="url(#sunGradient)" filter="url(#neonGlow)" />
  <circle cx="200" cy="100" r="60" fill="none" stroke="#ff4500" stroke-width="2" opacity="0.6" />
  <circle cx="200" cy="100" r="70" fill="none" stroke="#ff4500" stroke-width="1" opacity="0.4" />
  
  <g transform="translate(80, 140)">
    <ellipse cx="0" cy="0" rx="35" ry="10" fill="none" stroke="#00ffff" stroke-width="1.5" opacity="0.7" transform="rotate(-20)" />
    <ellipse cx="0" cy="0" rx="30" ry="8" fill="none" stroke="#00ffff" stroke-width="1" opacity="0.5" transform="rotate(-20)" />
    <circle cx="0" cy="0" r="20" fill="url(#planet1Gradient)" filter="url(#planetGlow)" />
  </g>
  
  <g transform="translate(320, 120)">
    <ellipse cx="0" cy="0" rx="28" ry="8" fill="none" stroke="#ff00ff" stroke-width="1.5" opacity="0.7" transform="rotate(15)" />
    <circle cx="0" cy="0" r="15" fill="url(#planet2Gradient)" filter="url(#planetGlow)" />
  </g>
  
  <circle cx="100" cy="130" r="4" fill="#c0c0c0" />
  <circle cx="340" cy="110" r="3" fill="#a0a0a0" />
  
  <g transform="translate(200, 220) rotate(-15)">
    <path d="M 0,-30 L 15,10 L 0,5 L -15,10 Z" fill="#e0e0e0" stroke="#00ffff" stroke-width="2" />
    <rect x="-5" y="5" width="10" height="15" fill="#00ffff" />
    <path d="M -15,10 L -20,20 L -10,15 Z" fill="#e0e0e0" stroke="#00ffff" stroke-width="1" />
    <path d="M 15,10 L 20,20 L 10,15 Z" fill="#e0e0e0" stroke="#00ffff" stroke-width="1" />
    <circle cx="0" cy="-10" r="5" fill="#00ffff" opacity="0.8" />
  </g>
  
  <path d="M 50,50 L 55,50 L 52.5,45 Z" fill="#ffffff" />
  <path d="M 350,70 L 355,70 L 352.5,65 Z" fill="#ffffff" />
  <path d="M 100,30 L 105,30 L 102.5,25 Z" fill="#ffffff" />
  <path d="M 300,40 L 305,40 L 302.5,35 Z" fill="#ffffff" />
  <path d="M 250,30 L 255,30 L 252.5,25 Z" fill="#ffffff" />
  <path d="M 150,55 L 155,55 L 152.5,50 Z" fill="#ffffff" />
  <path d="M 370,120 L 375,120 L 372.5,115 Z" fill="#ffffff" />
  
  <path d="M 330,20 L 370,60" stroke="#ffffff" stroke-width="1" opacity="0.7">
    <animate attributeName="opacity" values="0.7;0;0.7" dur="3s" repeatCount="indefinite" />
  </path>
  <path d="M 50,100 L 30,120" stroke="#ffffff" stroke-width="1" opacity="0.7">
    <animate attributeName="opacity" values="0.7;0;0.7" dur="4s" repeatCount="indefinite" />
  </path>
  
  <g fill="#ffffff">
    <circle cx="40" cy="40" r="1" />
    <circle cx="70" cy="90" r="1" />
    <circle cx="120" cy="60" r="1" />
    <circle cx="180" cy="30" r="1" />
    <circle cx="230" cy="70" r="1" />
    <circle cx="290" cy="90" r="1" />
    <circle cx="330" cy="50" r="1" />
    <circle cx="350" cy="140" r="1" />
    <circle cx="140" cy="90" r="1" />
    <circle cx="270" cy="60" r="1" />
  </g>
</svg>